<svg xmlns="http://www.w3.org/2000/svg" viewBox="0 0 180 180">
  <rect width="180" height="180" fill="#f5f5f5" rx="20"/>

  <!-- Grid of life squares - 5x5 -->
  <!-- Row 1 - all lived -->
  <rect x="24" y="24" width="24" height="24" rx="4" fill="#1a1a1a"/>
  <rect x="54" y="24" width="24" height="24" rx="4" fill="#1a1a1a"/>
  <rect x="84" y="24" width="24" height="24" rx="4" fill="#1a1a1a"/>
  <rect x="114" y="24" width="24" height="24" rx="4" fill="#1a1a1a"/>
  <rect x="144" y="24" width="24" height="24" rx="4" fill="#1a1a1a"/>

  <!-- Row 2 - all lived -->
  <rect x="24" y="54" width="24" height="24" rx="4" fill="#1a1a1a"/>
  <rect x="54" y="54" width="24" height="24" rx="4" fill="#1a1a1a"/>
  <rect x="84" y="54" width="24" height="24" rx="4" fill="#1a1a1a"/>
  <rect x="114" y="54" width="24" height="24" rx="4" fill="#1a1a1a"/>
  <rect x="144" y="54" width="24" height="24" rx="4" fill="#1a1a1a"/>

  <!-- Row 3 - partial lived (current row) -->
  <rect x="24" y="84" width="24" height="24" rx="4" fill="#1a1a1a"/>
  <rect x="54" y="84" width="24" height="24" rx="4" fill="#1a1a1a"/>
  <rect x="84" y="84" width="24" height="24" rx="4" fill="none" stroke="#1a1a1a" stroke-width="2"/>
  <rect x="114" y="84" width="24" height="24" rx="4" fill="none" stroke="#1a1a1a" stroke-width="2"/>
  <rect x="144" y="84" width="24" height="24" rx="4" fill="none" stroke="#1a1a1a" stroke-width="2"/>

  <!-- Row 4 - all future -->
  <rect x="24" y="114" width="24" height="24" rx="4" fill="none" stroke="#1a1a1a" stroke-width="2"/>
  <rect x="54" y="114" width="24" height="24" rx="4" fill="none" stroke="#1a1a1a" stroke-width="2"/>
  <rect x="84" y="114" width="24" height="24" rx="4" fill="none" stroke="#1a1a1a" stroke-width="2"/>
  <rect x="114" y="114" width="24" height="24" rx="4" fill="none" stroke="#1a1a1a" stroke-width="2"/>
  <rect x="144" y="114" width="24" height="24" rx="4" fill="none" stroke="#1a1a1a" stroke-width="2"/>

  <!-- Row 5 - all future -->
  <rect x="24" y="144" width="24" height="24" rx="4" fill="none" stroke="#1a1a1a" stroke-width="2"/>
  <rect x="54" y="144" width="24" height="24" rx="4" fill="none" stroke="#1a1a1a" stroke-width="2"/>
  <rect x="84" y="144" width="24" height="24" rx="4" fill="none" stroke="#1a1a1a" stroke-width="2"/>
  <rect x="114" y="144" width="24" height="24" rx="4" fill="none" stroke="#1a1a1a" stroke-width="2"/>
  <rect x="144" y="144" width="24" height="24" rx="4" fill="none" stroke="#1a1a1a" stroke-width="2"/>
</svg>
