<svg xmlns="http://www.w3.org/2000/svg" viewBox="0 0 180 180">
  <!-- Dark background matching app -->
  <rect width="180" height="180" fill="#0d1117" rx="32"/>

  <!-- Grid of life squares - 5x5 with warm→cool gradient -->
  <!-- Centered with 28px padding, 20x20 cells, 6px gaps -->

  <!-- Row 1 - lived (bright amber) -->
  <rect x="28" y="28" width="20" height="20" rx="4" fill="#ee8438"/>
  <rect x="54" y="28" width="20" height="20" rx="4" fill="#ee8438"/>
  <rect x="80" y="28" width="20" height="20" rx="4" fill="#ee8438"/>
  <rect x="106" y="28" width="20" height="20" rx="4" fill="#ee8438"/>
  <rect x="132" y="28" width="20" height="20" rx="4" fill="#ee8438"/>

  <!-- Row 2 - lived (rich orange) -->
  <rect x="28" y="54" width="20" height="20" rx="4" fill="#e68422"/>
  <rect x="54" y="54" width="20" height="20" rx="4" fill="#e68422"/>
  <rect x="80" y="54" width="20" height="20" rx="4" fill="#e68422"/>
  <rect x="106" y="54" width="20" height="20" rx="4" fill="#e68422"/>
  <rect x="132" y="54" width="20" height="20" rx="4" fill="#e68422"/>

  <!-- Row 3 - transition (lived orange → future teal) -->
  <rect x="28" y="80" width="20" height="20" rx="4" fill="#d6891e"/>
  <rect x="54" y="80" width="20" height="20" rx="4" fill="#d6891e"/>
  <rect x="80" y="80" width="20" height="20" rx="4" fill="none" stroke="#3f94bf" stroke-width="2"/>
  <rect x="106" y="80" width="20" height="20" rx="4" fill="none" stroke="#3f94bf" stroke-width="2"/>
  <rect x="132" y="80" width="20" height="20" rx="4" fill="none" stroke="#3f94bf" stroke-width="2"/>

  <!-- Row 4 - future (sky blue) -->
  <rect x="28" y="106" width="20" height="20" rx="4" fill="none" stroke="#4d8ccb" stroke-width="2"/>
  <rect x="54" y="106" width="20" height="20" rx="4" fill="none" stroke="#4d8ccb" stroke-width="2"/>
  <rect x="80" y="106" width="20" height="20" rx="4" fill="none" stroke="#4d8ccb" stroke-width="2"/>
  <rect x="106" y="106" width="20" height="20" rx="4" fill="none" stroke="#4d8ccb" stroke-width="2"/>
  <rect x="132" y="106" width="20" height="20" rx="4" fill="none" stroke="#4d8ccb" stroke-width="2"/>

  <!-- Row 5 - future (soft blue) -->
  <rect x="28" y="132" width="20" height="20" rx="4" fill="none" stroke="#6587cc" stroke-width="2"/>
  <rect x="54" y="132" width="20" height="20" rx="4" fill="none" stroke="#6587cc" stroke-width="2"/>
  <rect x="80" y="132" width="20" height="20" rx="4" fill="none" stroke="#6587cc" stroke-width="2"/>
  <rect x="106" y="132" width="20" height="20" rx="4" fill="none" stroke="#6587cc" stroke-width="2"/>
  <rect x="132" y="132" width="20" height="20" rx="4" fill="none" stroke="#6587cc" stroke-width="2"/>
</svg>
